<svg aria-hidden="true" style="position:absolute;width:0;height:0;overflow:hidden;" xmlns="http://www.w3.org/2000/svg">
    <defs>
        <symbol viewBox="0 0 15 15" id="icon_loader" xmlns="http://www.w3.org/2000/svg">
            <path
                    d="M795 172.75h-.004c.003.027.004.055.004.083 0 .552-.433 1-.968 1-.019 0-.038 0-.057-.002a7.138 7.138 0 0 1-1.841 3.956 6.941 6.941 0 0 1-2.213 1.603 6.831 6.831 0 0 1-5.37.115 7.094 7.094 0 0 1-2.338-1.542 7.424 7.424 0 0 1-1.604-2.367 7.665 7.665 0 0 1-.607-2.846c-.021-.98.145-1.972.495-2.894a7.642 7.642 0 0 1 1.545-2.496 7.424 7.424 0 0 1 2.37-1.712 7.301 7.301 0 0 1 5.741-.115 7.579 7.579 0 0 1 2.494 1.65 7.924 7.924 0 0 1 1.71 2.53 8.18 8.18 0 0 1 .643 3.037zm-1.072 1.077a.988.988 0 0 1-.86-1.077h-.003a6.195 6.195 0 0 0-.385-2.32 6.134 6.134 0 0 0-1.23-2.01 5.973 5.973 0 0 0-1.9-1.387 5.89 5.89 0 0 0-4.63-.115 6.128 6.128 0 0 0-2.023 1.325 6.42 6.42 0 0 0-1.395 2.044 6.71 6.71 0 0 0-.112 4.974c.3.801.756 1.544 1.336 2.172a6.458 6.458 0 0 0 2.056 1.495 6.36 6.36 0 0 0 5 .116 6.612 6.612 0 0 0 2.181-1.434 6.922 6.922 0 0 0 1.5-2.205 7.067 7.067 0 0 0 .465-1.578z"
                    transform="translate(-780 -165)"/>
        </symbol>
        <symbol viewBox="0 0 120 120" id="icon_email" xmlns="http://www.w3.org/2000/svg">
            <path
                    d="M1020 328.996V397a5.935 5.935 0 0 1-1.174 3.53c-.012.018-.014.036-.028.056-.014.02-.038.026-.054.046A5.973 5.973 0 0 1 1014 403H905.994a5.971 5.971 0 0 1-4.728-2.358c-.02-.022-.05-.04-.064-.056-.014-.016-.016-.038-.028-.056A5.933 5.933 0 0 1 900 397v-68.01c0-.042.024-.078.024-.12.013-.136.04-.27.082-.4.027-.118.065-.233.114-.344.056-.109.123-.211.2-.306.077-.113.166-.217.266-.31.032-.028.046-.066.08-.094l19.229-14.94v-15.482a6 6 0 0 1 6-6h21.675l8.68-6.74a5.93 5.93 0 0 1 7.295 0l8.679 6.74h21.675a6 6 0 0 1 6 6v15.483l19.235 14.938c.034.028.048.066.08.094.1.094.189.198.266.31.077.095.144.198.2.306.048.112.086.227.114.345.042.131.07.268.082.405.002.042.024.079.024.12zm-65.804-38.003h11.6l-4.613-3.582a1.918 1.918 0 0 0-2.386 0zm59.3 108.007l-52.313-40.625a1.92 1.92 0 0 0-2.386 0L906.498 399zm2.504-3.119zm0 0v-63.84l-32.834 25.496a2 2 0 1 1-2.453-3.16l33.356-25.902-14.07-10.934v15.455a2 2 0 0 1-4 0v-36.003a2 2 0 0 0-2-2h-68.004a2 2 0 0 0-2 2v36.003a2 2 0 0 1-4 0V317.54l-14.07 10.934 33.297 25.856a2 2 0 1 1-2.452 3.162l-32.776-25.451v63.84l52.357-40.663a5.934 5.934 0 0 1 7.294 0zm-39.559-56.893a7.978 7.978 0 0 1-8.358-7.15 12 12 0 1 1-8.086-20.843 2 2 0 1 1 0 4 8 8 0 1 0 8 8 2 2 0 1 1 4 0v8a4 4 0 1 0 8 0v-8c0-11.046-8.954-20-20-20-11.047 0-20.001 8.954-20.001 20 0 11.047 8.954 20.002 20 20.002a2 2 0 1 1 0 4c-13.255 0-24-10.746-24-24.002 0-13.255 10.745-24.001 24-24.001 13.256 0 24.002 10.746 24.002 24.001v8a7.979 7.979 0 0 1-7.557 7.993z"
                    transform="translate(-900 -283)"/>
        </symbol>
        <symbol viewBox="0 0 24 24" id="icon_copy" xmlns="http://www.w3.org/2000/svg">
            <path d="M6.439 5.927c.408 0 .738.33.738.739v5.078c0 .409.33.738.739.738h5.05c.41 0 .74.33.74.739v9.669c0 .613-.496 1.108-1.109 1.108H1.114l-.12-.007c-.396-.044-.73-.305-.889-.732-.064-.172-.098-.37-.098-.59V6.813c0-.392.494-.887 1.107-.887zM16.696 0c.409 0 .738.33.738.738v4.98c0 .409.33.739.739.739h5.078c.409 0 .738.33.738.738h-.002v9.767c0 .613-.495 1.108-1.108 1.108h-7.707v-7.463c0-.478-.187-.945-.539-1.297L10.323 5c-.01-.013-.022-.023-.032-.033v-3.86c0-.612.495-1.107 1.108-1.107zM9.03 5.927c.09 0 .182.032.258.109l1.002 1.002 3.306 3.308c.076.076.108.17.108.26-.002.19-.148.37-.369.37h-4.31c-.202 0-.37-.165-.367-.37v-4.31c0-.22.182-.369.372-.369zM18.94.372c0-.33.399-.493.63-.261l4.31 4.31c.234.231.07.63-.26.63h-4.31c-.205 0-.37-.165-.37-.37z" />
        </symbol>
        <symbol viewBox="0 0 130 130" id="icon_clock" xmlns="http://www.w3.org/2000/svg">
            <path
                    d="M1025 358c0 35.841-29.16 65-65 65-35.841 0-65-29.159-65-65s29.159-65 65-65c35.84 0 65 29.159 65 65zm-4.333 0c0-33.451-27.216-60.667-60.667-60.667S899.333 324.55 899.333 358 926.55 418.667 960 418.667s60.667-27.216 60.667-60.667zm-52-.262c0 4.78-3.887 8.667-8.667 8.667-4.026 0-7.39-2.774-8.359-6.5h-15.474a2.166 2.166 0 1 1 0-4.334h15.474a8.655 8.655 0 0 1 6.192-6.192v-21.974a2.166 2.166 0 1 1 4.334 0v21.974c3.726.968 6.5 4.331 6.5 8.359zm-4.334 0a4.338 4.338 0 0 0-4.333-4.333 4.338 4.338 0 0 0-4.333 4.333A4.338 4.338 0 0 0 960 362.07a4.338 4.338 0 0 0 4.333-4.333zm-6.5-45.5v-2.167a2.166 2.166 0 1 1 4.334 0v2.167a2.166 2.166 0 1 1-4.334 0zm4.334 91v2.167a2.166 2.166 0 1 1-4.334 0v-2.167a2.166 2.166 0 1 1 4.334 0zm47.666-45.5c0 1.198-.97 2.167-2.166 2.167h-2.167a2.166 2.166 0 1 1 0-4.334h2.167c1.196 0 2.166.969 2.166 2.167zm-93.166 0c0 1.198-.971 2.167-2.167 2.167h-2.167a2.166 2.166 0 1 1 0-4.334h2.167c1.196 0 2.167.969 2.167 2.167zm78.57-35.239a2.164 2.164 0 0 1 0 3.064l-1.532 1.532a2.161 2.161 0 0 1-1.532.635 2.164 2.164 0 0 1-1.532-3.699l1.532-1.532a2.166 2.166 0 0 1 3.063 0zm-65.878 65.88a2.164 2.164 0 0 1 0 3.063l-1.532 1.532a2.16 2.16 0 0 1-1.532.635 2.164 2.164 0 0 1-1.532-3.699l1.532-1.531a2.166 2.166 0 0 1 3.064 0zm65.877 1.532a2.164 2.164 0 0 1-1.531 3.698c-.555 0-1.11-.212-1.532-.635l-1.532-1.532a2.164 2.164 0 0 1 0-3.063 2.164 2.164 0 0 1 3.064 0zm-65.877-65.88a2.164 2.164 0 0 1-1.532 3.699 2.16 2.16 0 0 1-1.532-.635l-1.531-1.532a2.164 2.164 0 0 1 0-3.064 2.164 2.164 0 0 1 3.063 0z"
                    transform="translate(-895 -293)"/>
        </symbol>
        <symbol viewBox="0 0 20 18" id="icon_link_external" xmlns="http://www.w3.org/2000/svg">
            <path
                    d="M878.614 566.606c.067.07.1.16.1.27v3.75c0 .93-.314 1.725-.943 2.385-.629.66-1.386.99-2.271.99h-9.286c-.885 0-1.642-.33-2.271-.99-.629-.66-.943-1.455-.943-2.385v-9.752c0-.93.314-1.724.943-2.385.629-.66 1.386-.99 2.271-.99h7.857a.34.34 0 0 1 .257.105c.067.07.1.16.1.27v.75c0 .11-.033.2-.1.27a.34.34 0 0 1-.257.105h-7.857a1.68 1.68 0 0 0-1.261.551c-.35.367-.524.808-.524 1.324v9.752c0 .515.174.957.524 1.324.35.367.77.55 1.261.55h9.286a1.68 1.68 0 0 0 1.261-.55c.35-.367.525-.809.525-1.324v-3.75c0-.11.033-.2.1-.27a.338.338 0 0 1 .257-.106h.714c.104 0 .19.035.257.106zm4.386-9.857v6c0 .204-.07.38-.212.528a.67.67 0 0 1-.502.223.67.67 0 0 1-.503-.223l-1.964-2.063-7.277 7.642a.345.345 0 0 1-.256.117.345.345 0 0 1-.257-.117l-1.272-1.336a.38.38 0 0 1 0-.54l7.276-7.64-1.964-2.064a.74.74 0 0 1-.212-.527c0-.203.07-.38.212-.527a.67.67 0 0 1 .502-.223h5.714c.194 0 .361.074.503.223a.74.74 0 0 1 .212.527z"
                    transform="translate(-863 -556)"/>
        </symbol>
        <symbol viewBox="0 0 96 96" id="icon_expired" xmlns="http://www.w3.org/2000/svg">
            <path d="M52.617 95.73c19.368-2.156 34.89-17.55 37.099-36.808 2.9-25.18-16.784-46.614-41.458-46.889V.737c0-.627-.789-.96-1.321-.568l-23.392 17.08c-.394.295-.394.863 0 1.158l23.392 17.08c.532.393 1.321.04 1.321-.568V23.643c17.337.274 31.222 14.943 30.038 32.475-1.006 15.08-13.372 27.317-28.539 28.278-16.074 1.02-29.742-10.394-32.188-25.494-.454-2.804-2.919-4.843-5.759-4.843-3.53 0-6.292 3.118-5.74 6.589C9.503 82.16 29.483 98.3 52.618 95.73z"/>
        </symbol>
        <symbol viewBox="0 0 70 100" id="icon_overpaid" xmlns="http://www.w3.org/2000/svg">
            <g transform="translate(-165 -116)">
                <path d="M206.55 182.32h3.158v3.158h-3.158z"/>
                <path d="M226.55 182.32h3.158v3.158h-3.158z"/>
                <path
                        d="M205.148 184.272c.028-7.361 5.975-13.305 13.284-13.276h.109c3.22.02 6.32 1.225 8.719 3.388 4.108 3.697 5.514 9.57 3.527 14.745-1.986 5.175-6.949 8.569-12.458 8.521-7.308-.028-13.21-6.019-13.181-13.378zm10.21 27.232l-3.497-4.833a1.647 1.647 0 0 0-2.667-.002l-3.51 4.833-3.497-4.833a1.714 1.714 0 0 0-1.337-.644c-.519 0-1.01.237-1.336.644l-3.495 4.823-3.496-4.816a1.709 1.709 0 0 0-2.67 0l-3.498 4.833-3.509-4.833a1.647 1.647 0 0 0-1.334-.683 1.65 1.65 0 0 0-1.333.683l-3.497 4.816-3.495-4.816a1.71 1.71 0 0 0-2.671 0l-1.708 2.357v-84.34l3.044-4.193 3.494 4.816a1.65 1.65 0 0 0 2.67 0l3.5-4.833 3.508 4.833c.31.43.807.683 1.334.683a1.65 1.65 0 0 0 1.334-.683l3.497-4.816 3.495 4.816a1.71 1.71 0 0 0 2.672 0l3.493-4.816 3.493 4.816c.312.43.808.683 1.335.683a1.65 1.65 0 0 0 1.335-.682l3.51-4.832 3.497 4.832a1.65 1.65 0 0 0 1.333.684c.528 0 1.024-.253 1.334-.682l1.746-2.395v44.738c-9.136-.036-16.57 7.396-16.607 16.6-.035 9.204 7.341 16.694 16.476 16.731h.13v6.288zm6.382-43.498v-50.173c0-.72-.46-1.36-1.14-1.585a1.649 1.649 0 0 0-1.85.6l-3.391 4.667-3.498-4.833a1.648 1.648 0 0 0-2.667 0l-3.51 4.833-3.497-4.833a1.712 1.712 0 0 0-1.337-.645c-.519 0-1.01.237-1.336.645l-3.495 4.817-3.496-4.815a1.709 1.709 0 0 0-2.67 0l-3.498 4.832-3.509-4.832a1.647 1.647 0 0 0-1.334-.684 1.65 1.65 0 0 0-1.333.684l-3.497 4.815-3.495-4.815a1.71 1.71 0 0 0-2.671 0l-4.699 6.482c-.206.285-.317.63-.317.984v89.992c0 .722.46 1.362 1.141 1.585a1.647 1.647 0 0 0 1.85-.602l3.36-4.632 3.495 4.823a1.65 1.65 0 0 0 2.671 0l3.498-4.834 3.509 4.834a1.65 1.65 0 0 0 2.668-.008l3.497-4.815 3.495 4.823a1.71 1.71 0 0 0 2.672 0l3.493-4.823 3.493 4.823c.312.428.808.682 1.335.682.527 0 1.023-.253 1.335-.68l3.51-4.834 3.497 4.833c.31.428.806.682 1.333.683a1.65 1.65 0 0 0 1.334-.681l4.732-6.5c.21-.287.323-.636.322-.993v-7.176c7.667-1.549 13.197-8.316 13.233-16.194.067-7.968-5.482-14.866-13.233-16.45z"/>
                <path d="M185.5 130.74h16.842v3.158H185.5z"/>
                <path d="M174.97 141.26h5.263v3.158h-5.263z"/>
                <path d="M183.39 141.26h28.421v3.158H183.39z"/>
                <path d="M174.97 150.74h5.263v3.158h-5.263z"/>
                <path d="M174.97 161.26h5.263v3.158h-5.263z"/>
                <path d="M183.39 150.74h28.421v3.158H183.39z"/>
                <path d="M183.39 161.26h28.421v3.158H183.39z"/>
                <path d="M174.97 170.74h5.263v3.158h-5.263z"/>
                <path d="M183.39 170.74h16.842v3.158H183.39z"/>
                <path
                        d="M216.952 182.223c-.945 0-1.71-.746-1.71-1.666 0-.92.765-1.667 1.71-1.667zm5.131 5c0 .92-.766 1.667-1.71 1.667v-3.333c.944 0 1.71.746 1.71 1.666zm0-6.666h3.421c0-2.762-2.297-5-5.131-5v-1.667h-3.421v1.667c-2.834 0-5.132 2.238-5.132 5 0 2.76 2.298 5 5.132 5v3.333c-.945 0-1.711-.746-1.711-1.667h-3.421c0 2.762 2.298 5 5.132 5v1.667h3.42v-1.667c2.835 0 5.132-2.238 5.132-5 0-2.76-2.297-5-5.131-5v-3.333c.944 0 1.71.746 1.71 1.667z"/>
            </g>
        </symbol>
        <symbol viewBox="0 0 16 16" id="icon_exclamation" xmlns="http://www.w3.org/2000/svg">
            <path d="M15.86 13.116L8.84 1.474C8.661 1.18 8.343 1 8 1s-.662.18-.84.474L.14 13.116c-.182.302-.187.68-.013.988.174.308.5.498.853.498h14.04c.353 0 .68-.19.853-.498.174-.308.169-.686-.014-.988zm-7.855-8.09c.403 0 .744.228.744.631 0 1.23-.144 2.998-.144 4.228 0 .32-.352.455-.6.455-.33 0-.61-.134-.61-.455 0-1.23-.144-2.997-.144-4.228 0-.403.33-.63.754-.63zm.01 7.62c-.454 0-.795-.373-.795-.797 0-.434.34-.795.796-.795.423 0 .785.361.785.795 0 .424-.362.796-.785.796z"/>
        </symbol>
        <symbol viewBox="0 0 16 16" id="icon_question" xmlns="http://www.w3.org/2000/svg">
            <path d="M7.86 12.57c.947 0 1.715.767 1.715 1.715 0 .947-.768 1.715-1.715 1.715-.947 0-1.714-.768-1.714-1.715 0-.948.767-1.716 1.714-1.716zM7.79.016c3.264-.207 6.056 1.44 5.675 4.916-.127 1.16-.875 1.91-1.586 2.533-.745.651-1.633 1.038-2.228 1.862-.365.508-.419 1.29-.457 2.106H6.478c.043-1.277.143-2.32.702-3.113.57-.81 1.672-1.357 2.35-2.107.366-.404 1.136-1.368.793-2.197-.318-.768-1.367-1.036-2.472-.916-1.126.12-1.73.944-1.77 2.045H3C3.14 1.968 4.736.21 7.79.017z"/>
        </symbol>
        <symbol viewBox="0 0 24 24" id="icon_bell" xmlns="http://www.w3.org/2000/svg">
            <path d="M15.398 22c-.564 1.178-1.758 2-3.149 2-1.39 0-2.585-.822-3.149-2zM12.25 0c1.103 0 2 .897 2 2v1.795c2.888.863 5 3.54 5 6.705v2.507c0 1.54.42 3.053 1.212 4.374l1.717 2.862c.092.154.095.348.006.504-.089.156-.255.253-.435.253h-19c-.18 0-.345-.097-.434-.254-.089-.157-.087-.349.006-.504l1.717-2.862c.792-1.321 1.211-2.833 1.211-4.373V10.5c0-3.165 2.112-5.842 5-6.705V2c0-1.103.897-2 2-2z" />
        </symbol>
        <symbol viewBox="0 0 96 96" id="icon_check" xmlns="http://www.w3.org/2000/svg">
            <path d="M1.107 51.6C.37 50.88 0 49.8 0 49.08s.37-1.8 1.107-2.52l5.17-5.04c1.477-1.44 3.692-1.44 5.17 0l.368.36 20.308 21.24c.739.72 1.846.72 2.584 0l49.478-50.04h.369c1.477-1.44 3.692-1.44 5.17 0l5.169 5.04c1.476 1.44 1.476 3.6 0 5.04L35.815 82.92c-.738.72-1.477 1.08-2.584 1.08-1.108 0-1.846-.36-2.585-1.08l-28.8-30.24-.739-1.08z" />
        </symbol>
    </defs>
</svg>
